<svg version="1.0" xmlns="http://www.w3.org/2000/svg"
 width="1000.000000pt" height="1269.000000pt" viewBox="0 0 1000.000000 1269.000000"
 preserveAspectRatio="xMidYMid meet">
<g transform="translate(0.000000,1269.000000) scale(0.100000,-0.100000)"
fill="black" stroke="none">
<path d="M0 7690 l0 -5000 5000 0 5000 0 0 5000 0 5000 -5000 0 -5000 0 0
-5000z m5307 1108 c29 -29 37 -46 41 -86 11 -119 -95 -201 -202 -153 -82 36
-114 120 -75 198 31 62 74 86 147 80 45 -3 59 -9 89 -39z m383 24 c55 -27 83
-77 78 -138 -6 -66 -35 -108 -93 -129 -57 -22 -104 -14 -150 26 -131 116 8
320 165 241z m2068 -10 c17 -13 38 -41 48 -67 14 -39 15 -52 5 -88 -17 -56
-53 -92 -107 -107 -38 -11 -51 -10 -89 4 -58 23 -88 64 -92 130 -5 60 18 104
69 137 43 26 122 22 166 -9z m392 10 c97 -48 108 -189 19 -253 -44 -31 -125
-33 -165 -3 -72 53 -90 122 -52 193 40 75 123 101 198 63z m-6583 -52 c61 -27
85 -70 80 -142 -2 -44 -9 -64 -28 -84 -33 -36 -72 -54 -114 -54 -132 0 -196
146 -109 249 42 50 105 62 171 31z m3290 0 c61 -27 85 -70 80 -142 -4 -62 -25
-96 -79 -124 -118 -61 -254 67 -200 188 40 89 113 118 199 78z m2469 4 c108
-51 109 -211 2 -263 -56 -27 -83 -27 -138 2 -57 29 -83 75 -77 138 9 109 115
170 213 123z m-3720 -10 c97 -46 103 -189 11 -258 -40 -29 -122 -28 -165 3
-47 33 -65 74 -60 137 9 107 115 165 214 118z m2492 -83 c17 -12 38 -41 47
-66 24 -61 13 -109 -34 -156 -47 -47 -95 -58 -156 -34 -63 24 -90 65 -90 137
0 66 21 102 76 131 44 23 115 18 157 -12z m2430 15 c154 -80 78 -314 -92 -282
-137 26 -159 225 -31 282 39 17 89 17 123 0z m-1440 -243 c63 -46 79 -147 33
-211 -27 -39 -97 -67 -146 -58 -46 9 -101 57 -115 102 -22 66 11 147 71 177
43 22 120 17 157 -10z m-2478 -2 c51 -26 82 -84 77 -142 -12 -150 -206 -191
-274 -59 -28 55 -29 89 -2 141 35 70 129 98 199 60z m-2679 -24 c19 -12 42
-38 51 -57 74 -146 -105 -285 -228 -178 -59 52 -69 143 -22 203 45 57 139 72
199 32z m1349 -7 c40 -29 63 -84 57 -138 -16 -146 -208 -182 -274 -52 -28 54
-28 82 -3 138 35 77 147 104 220 52z m-1697 -47 c91 -46 88 -205 -4 -255 -116
-62 -252 40 -219 164 27 98 128 140 223 91z m2027 -5 c51 -35 72 -69 72 -120
2 -90 -59 -153 -146 -153 -60 1 -107 28 -132 77 -21 41 -15 129 12 159 54 62
135 77 194 37z m2630 -46 c123 -61 98 -253 -35 -278 -48 -9 -92 4 -131 38
-127 112 13 317 166 240z m-3971 -229 c69 -52 86 -135 43 -205 -76 -122 -272
-65 -272 79 0 70 42 129 105 146 35 10 97 -1 124 -20z m651 5 c83 -42 109
-135 60 -215 -63 -104 -247 -69 -267 50 -13 81 22 147 92 172 54 19 64 19 115
-7z m4193 -32 c94 -40 119 -154 51 -236 -47 -55 -141 -64 -198 -19 -134 106
-10 322 147 255z m-2524 -34 c96 -48 109 -185 23 -250 -88 -67 -220 -11 -238
100 -5 26 0 49 15 80 37 78 125 109 200 70z m-2997 -56 c55 -36 76 -138 41
-198 -75 -127 -276 -72 -276 76 0 123 130 191 235 122z m2018 2 c51 -35 72
-69 72 -120 3 -153 -186 -213 -270 -88 -32 48 -28 137 9 176 51 56 133 70 189
32z m3858 -155 c48 -36 66 -70 66 -123 0 -146 -190 -203 -271 -81 -48 71 -20
174 57 214 43 22 111 18 148 -10z m401 -1 c96 -48 109 -185 23 -250 -89 -68
-224 -10 -238 104 -4 29 1 50 18 83 40 75 123 101 197 63z m417 -8 c71 -34
103 -150 58 -211 -38 -50 -71 -68 -128 -68 -89 1 -146 61 -146 153 0 103 118
172 216 126z m-5670 -65 c97 -91 58 -236 -72 -263 -41 -9 -107 17 -138 55 -54
63 -35 175 36 219 47 30 137 24 174 -11z m1992 -146 c89 -65 79 -201 -18 -250
-55 -28 -82 -29 -136 -2 -108 52 -108 209 -2 263 42 21 120 16 156 -11z
m-3000 -36 c31 -32 36 -43 39 -94 5 -75 -19 -116 -83 -145 -133 -58 -262 90
-186 214 31 49 75 70 140 65 46 -3 59 -9 90 -40z m1985 29 c94 -40 119 -154
51 -236 -47 -55 -141 -64 -198 -19 -134 106 -10 322 147 255z m5045 -25 c17
-12 38 -41 47 -66 24 -61 13 -109 -34 -156 -47 -47 -95 -58 -156 -34 -63 24
-90 65 -90 137 0 66 21 102 76 131 44 23 115 18 157 -12z m-2415 -245 c100
-43 123 -174 42 -245 -101 -88 -245 -22 -245 112 0 104 106 174 203 133z
m-4655 -120 c52 -27 75 -62 80 -119 8 -97 -49 -161 -144 -162 -86 0 -147 63
-147 152 0 101 121 176 211 129z m2025 0 c94 -40 119 -154 51 -236 -47 -55
-141 -64 -198 -19 -134 106 -10 322 147 255z m1006 -11 c53 -27 81 -71 81
-126 0 -84 -44 -139 -122 -154 -39 -7 -112 18 -137 48 -25 31 -38 87 -31 129
8 40 49 93 85 108 32 14 94 11 124 -5z m4079 -15 c92 -56 98 -189 10 -251 -43
-31 -125 -33 -164 -3 -49 36 -68 70 -68 123 0 116 125 190 222 131z m-2603
-233 c102 -57 99 -206 -5 -260 -45 -23 -116 -18 -158 11 -65 47 -77 151 -24
214 50 59 120 73 187 35z m1133 3 c33 -15 47 -29 62 -62 25 -56 25 -84 -2
-138 -74 -144 -294 -76 -275 86 5 51 35 96 79 117 44 22 84 21 136 -3z m-2348
-75 c86 -45 103 -171 32 -237 -78 -73 -190 -50 -241 49 -33 64 11 171 79 196
30 11 102 7 130 -8z m3537 4 c138 -52 120 -258 -24 -285 -104 -20 -195 75
-171 180 20 88 111 137 195 105z m-3155 -49 c45 -13 95 -68 104 -116 9 -46
-20 -119 -58 -147 -16 -12 -48 -22 -80 -25 -44 -3 -59 0 -88 20 -97 65 -91
202 10 255 49 26 60 27 112 13z m420 0 c20 -6 50 -26 66 -44 85 -97 16 -246
-113 -246 -151 0 -201 209 -65 278 50 25 60 26 112 12z m1928 -12 c57 -30 83
-76 77 -141 -8 -87 -72 -142 -158 -134 -61 5 -103 36 -124 92 -21 55 -14 103
22 146 51 60 112 73 183 37z m403 8 c77 -32 112 -114 82 -191 -21 -56 -63 -87
-124 -92 -162 -14 -225 201 -81 275 51 25 78 27 123 8z m-6423 -14 c124 -62
98 -253 -37 -278 -106 -20 -199 80 -171 184 25 92 123 137 208 94z m2023 4
c126 -53 116 -238 -14 -278 -99 -29 -189 40 -189 145 0 104 106 174 203 133z"/>
<path d="M460 1859 c-114 -17 -202 -61 -293 -148 -260 -247 -189 -673 138
-832 157 -76 337 -75 492 1 63 31 173 122 173 144 0 6 -28 40 -63 74 l-63 63
-24 -26 c-38 -40 -110 -82 -174 -100 -213 -62 -416 90 -416 310 0 128 63 231
173 284 132 65 266 46 372 -51 l56 -51 70 69 69 68 -52 53 c-68 69 -168 121
-266 139 -86 15 -112 15 -192 3z"/>
<path d="M1440 1340 l0 -500 375 0 375 0 0 100 0 100 -265 0 -265 0 0 110 0
110 200 0 200 0 0 95 0 95 -200 0 -200 0 0 100 0 100 260 0 260 0 0 95 0 95
-370 0 -370 0 0 -500z"/>
<path d="M2682 1343 l3 -498 108 -3 107 -3 0 176 0 175 93 0 92 0 93 -171 c52
-94 99 -172 106 -175 7 -3 60 -3 119 -2 l106 3 -107 189 c-77 137 -102 191
-92 194 29 10 103 89 128 137 37 73 42 188 11 270 -30 80 -104 154 -182 183
-54 21 -76 22 -322 22 l-265 0 2 -497z m488 294 c72 -25 105 -132 59 -191 -38
-48 -67 -56 -204 -56 l-125 0 0 130 0 130 118 -1 c64 0 133 -5 152 -12z"/>
<path d="M3870 1745 l0 -95 140 0 140 0 0 -405 0 -405 110 0 110 0 0 405 0
405 140 0 140 0 0 95 0 95 -390 0 -390 0 0 -95z"/>
<path d="M5102 1343 l3 -498 108 -3 107 -3 0 501 0 500 -110 0 -110 0 2 -497z"/>
<path d="M5872 1343 l3 -498 108 -3 107 -3 0 195 0 196 203 2 202 3 3 98 3 97
-206 0 -205 0 0 110 0 110 260 0 260 0 0 95 0 95 -370 0 -370 0 2 -497z"/>
<path d="M7090 1340 l0 -500 110 0 110 0 0 500 0 500 -110 0 -110 0 0 -500z"/>
<path d="M7860 1340 l0 -500 375 0 375 0 0 100 0 100 -265 0 -265 0 0 110 0
110 200 0 200 0 0 95 0 95 -200 0 -200 0 0 100 0 100 260 0 260 0 0 95 0 95
-370 0 -370 0 0 -500z"/>
<path d="M9102 1343 l3 -498 195 -3 c233 -3 310 7 408 53 173 81 282 254 282
445 0 178 -80 329 -224 422 -108 69 -155 78 -427 78 l-239 0 2 -497z m496 277
c230 -100 228 -447 -3 -552 -40 -18 -73 -23 -162 -26 l-113 -4 0 307 0 308
113 -5 c88 -4 123 -10 165 -28z"/>
</g>
</svg>
